<svg xmlns="http://www.w3.org/2000/svg" viewBox="0 0 512 512">
  <defs>
    <linearGradient id="grad" x1="0%" y1="0%" x2="100%" y2="100%">
      <stop offset="0%" style="stop-color:#4a90e2;stop-opacity:1" />
      <stop offset="100%" style="stop-color:#e24a90;stop-opacity:1" />
    </linearGradient>
  </defs>

  <!-- Background -->
  <rect width="512" height="512" fill="url(#grad)"/>

  <!-- 3D Cube -->
  <g transform="translate(256, 256)">
    <!-- Top face -->
    <path d="M-80,-80 L80,-80 L100,-100 L-60,-100 Z" fill="#ffffff" opacity="0.9"/>

    <!-- Right face -->
    <path d="M80,-80 L80,80 L100,60 L100,-100 Z" fill="#dddddd" opacity="0.9"/>

    <!-- Front face -->
    <rect x="-80" y="-80" width="160" height="160" fill="#eeeeee" opacity="0.9"/>

    <!-- Grid lines on front face -->
    <line x1="-80" y1="-27" x2="80" y2="-27" stroke="#cccccc" stroke-width="2"/>
    <line x1="-80" y1="27" x2="80" y2="27" stroke="#cccccc" stroke-width="2"/>
    <line x1="-27" y1="-80" x2="-27" y2="80" stroke="#cccccc" stroke-width="2"/>
    <line x1="27" y1="-80" x2="27" y2="80" stroke="#cccccc" stroke-width="2"/>

    <!-- Outline -->
    <rect x="-80" y="-80" width="160" height="160" fill="none" stroke="#ffffff" stroke-width="4"/>
    <path d="M-80,-80 L80,-80 L100,-100 L-60,-100 Z" fill="none" stroke="#ffffff" stroke-width="3"/>
    <path d="M80,-80 L80,80 L100,60 L100,-100 Z" fill="none" stroke="#ffffff" stroke-width="3"/>
  </g>
</svg>
